<?xml version="1.0" encoding="utf-8"?>
<!-- Generator: Adobe Illustrator 25.0.0, SVG Export Plug-In . SVG Version: 6.00 Build 0)  -->
<svg version="1.1" id="Layer_1" xmlns="http://www.w3.org/2000/svg" xmlns:xlink="http://www.w3.org/1999/xlink" x="0px" y="0px"
	 viewBox="0 0 1000 1000" style="enable-background:new 0 0 1000 1000;" xml:space="preserve">
<style type="text/css">
	.st0{fill:#FFFFFF;}
</style>
<g>
	<g>
		<path class="st0" d="M989.7,484C981.5,226.6,773.4,18.5,516,10.3C375.9,5.8,244.9,59.1,148,159.1C54.9,255.3,6,382,10.3,516
			C18.5,773.4,226.6,981.5,484,989.7c5.4,0.2,10.7,0.3,16,0.3c133.8,0,258.8-53,352-149.1C945.1,744.7,994,618,989.7,484z
			 M777.9,769.1C704.3,845,605.6,886.8,500,886.8c-4.2,0-8.4-0.1-12.7-0.2c-203.2-6.5-367.4-170.7-373.9-373.9
			c-3.4-105.8,35.2-205.9,108.7-281.8C295.7,155,394.3,113.2,500,113.2c4.2,0,8.4,0.1,12.7,0.2c203.2,6.5,367.4,170.7,373.9,373.9
			C890,593.1,851.4,693.2,777.9,769.1z"/>
		<path class="st0" d="M660.7,471.5L443.4,315.7c-23.2-16.6-55.4-0.1-55.4,28.5v311.6c0,28.5,32.3,45.1,55.4,28.5l217.3-155.8
			C680.2,514.5,680.2,485.5,660.7,471.5z"/>
	</g>
</g>
</svg>
